# xmcd
#
# Track frame offsets:
#	150
#	5631
#	48928
#	73920
#	97156
#	126716
#	149025
#	186084
#	217502
#
# Disc length: 3347 seconds
#
# Revision: 1
# Processed by: cddbd v1.5.2PL0 Copyright (c) Steve Scherf et al.
# Submitted via: audiograbber 1.83.01
#
DISCID=8d0d1109
DTITLE=Dire Straits - Live in Los Angeles
DYEAR=1980
DGENRE=Rock
TTITLE0=Intro
TTITLE1=Once upon a time in the west
TTITLE2=Expresso Love
TTITLE3=Down to the Waterline
TTITLE4=Lions
TTITLE5=Single handed Sailor
TTITLE6=Skateaway
TTITLE7=Romeo and Juliet
TTITLE8=In the Gallery
EXTD=
EXTT0=
EXTT1=
EXTT2=
EXTT3=
EXTT4=
EXTT5=
EXTT6=
EXTT7=
EXTT8=
PLAYORDER=
